<svg xmlns="http://www.w3.org/2000/svg" xmlns:xlink="http://www.w3.org/1999/xlink" width="5206" zoomAndPan="magnify" viewBox="0 0 3904.5 2687.249959" height="3583" preserveAspectRatio="xMidYMid meet" version="1.0"><defs><g/><clipPath id="8194956e11"><path d="M 1284.359375 379 L 2619 379 L 2619 1002.46875 L 1284.359375 1002.46875 Z M 1284.359375 379 " clip-rule="nonzero"/></clipPath></defs><path fill="#ff8000" d="M 2360.976562 349.050781 C 2354.601562 345.003906 2348.230469 345.863281 2341.027344 345.417969 C 2323.019531 343.886719 2305.96875 340.828125 2287.898438 340.476562 C 2213.191406 339.074219 2138.359375 340.890625 2063.652344 340.253906 C 1977.21875 339.554688 1890.945312 344.300781 1804.414062 345.355469 C 1733.023438 346.214844 1661.152344 342.996094 1590.335938 338.5 C 1543.390625 335.507812 1489.878906 371.265625 1509.097656 421.367188 C 1515.472656 438.289062 1526.691406 459.835938 1544.15625 469.171875 C 1549.316406 471.664062 1554.671875 473.632812 1560.214844 475.078125 C 1565.757812 476.527344 1571.390625 477.425781 1577.109375 477.777344 C 1580.296875 530.621094 1599.421875 580.082031 1618.957031 629.484375 C 1636.742188 674.101562 1655.257812 715.21875 1687.863281 752.632812 C 1700.917969 767.734375 1715.34375 781.386719 1731.144531 793.585938 C 1711.160156 804.105469 1690.347656 811.914062 1688.816406 836.835938 C 1687.511719 857.554688 1704.371094 870.269531 1722.539062 879.289062 C 1752.910156 894.363281 1786.089844 901.597656 1820.222656 904.210938 C 1865 907.652344 1910.195312 911.511719 1955.417969 911.511719 C 1996.851562 911.734375 2038.09375 902.90625 2078.761719 896.402344 C 2116.621094 890.378906 2160.921875 887.160156 2192.667969 865.203125 C 2231.167969 838.652344 2216.058594 787.4375 2173.003906 777.109375 C 2187.648438 765.199219 2201.011719 751.996094 2213.097656 737.496094 C 2246.785156 696.636719 2260.742188 652.464844 2273.652344 603.351562 C 2287.386719 550.859375 2305.523438 499.101562 2319.164062 446.832031 C 2319.421875 445.917969 2319.421875 445.003906 2319.164062 444.089844 C 2346.15625 437.238281 2369.871094 424.96875 2372.832031 395.964844 C 2374.523438 381.589844 2376.433594 358.867188 2360.976562 349.050781 Z M 2244.265625 1.53125 C 2217.078125 7.203125 2197.828125 26.355469 2192.984375 51.632812 C 2190.53125 64.378906 2195.023438 73.71875 2196.171875 85.765625 C 2197.703125 103.390625 2180.90625 111.582031 2168.253906 123.40625 C 2133.355469 155.945312 2097.660156 187.847656 2065.789062 223.097656 C 2051.894531 238.425781 2039.082031 255.191406 2026.492188 271.382812 C 2020.46875 279.125 1999.59375 303.828125 2003.671875 314.121094 C 2007.75 324.414062 2036.210938 321.035156 2047.398438 321.484375 C 2081.054688 323.011719 2114.488281 322.152344 2148.144531 320.558594 C 2180.84375 318.964844 2189.796875 306.34375 2206.308594 280.527344 C 2229.828125 243.652344 2240.726562 206.015625 2250.671875 164.742188 C 2252.773438 154.320312 2255.894531 144.21875 2260.042969 134.433594 C 2265.777344 122.449219 2270.113281 120.027344 2282.351562 114.832031 C 2293.824219 109.921875 2303.707031 105.972656 2312.152344 96.792969 C 2353.042969 51.949219 2302.527344 -10.644531 2244.265625 1.53125 Z M 2244.265625 1.53125 " fill-opacity="1" fill-rule="nonzero"/><path fill="#ffffff" d="M 2134.820312 527.371094 C 2110.058594 510.507812 2073.914062 503.914062 2043.160156 499.578125 C 2043.113281 499.128906 2043 498.695312 2042.828125 498.277344 C 2042.65625 497.859375 2042.429688 497.472656 2042.148438 497.121094 C 2041.863281 496.769531 2041.539062 496.460938 2041.167969 496.203125 C 2040.800781 495.941406 2040.402344 495.738281 2039.972656 495.59375 C 2022.785156 488.515625 2004.980469 483.738281 1986.558594 481.253906 C 2028.179688 472.421875 2068.6875 447.246094 2086.601562 412.855469 C 2086.714844 412.605469 2086.808594 412.347656 2086.890625 412.082031 C 2086.96875 411.816406 2087.03125 411.546875 2087.074219 411.273438 C 2087.117188 411 2087.144531 410.726562 2087.152344 410.449219 C 2087.164062 410.171875 2087.152344 409.898438 2087.125 409.621094 C 2087.097656 409.347656 2087.054688 409.074219 2086.992188 408.804688 C 2086.929688 408.535156 2086.847656 408.273438 2086.75 408.011719 C 2086.65625 407.753906 2086.542969 407.503906 2086.410156 407.257812 C 2086.28125 407.015625 2086.136719 406.78125 2085.976562 406.554688 C 2085.816406 406.328125 2085.640625 406.117188 2085.453125 405.914062 C 2085.265625 405.710938 2085.066406 405.519531 2084.851562 405.34375 C 2084.640625 405.167969 2084.414062 405.003906 2084.179688 404.859375 C 2083.949219 404.710938 2083.703125 404.578125 2083.453125 404.464844 C 2083.203125 404.347656 2082.945312 404.25 2082.679688 404.164062 C 2082.417969 404.082031 2082.148438 404.019531 2081.875 403.972656 C 2081.605469 403.925781 2081.328125 403.894531 2081.054688 403.882812 C 2080.777344 403.871094 2080.5 403.875 2080.226562 403.902344 C 2080.058594 403.230469 2079.792969 402.601562 2079.425781 402.011719 C 2079.0625 401.421875 2078.621094 400.902344 2078.09375 400.453125 C 2077.570312 400 2076.988281 399.640625 2076.351562 399.367188 C 2075.714844 399.097656 2075.050781 398.929688 2074.363281 398.867188 C 2023.367188 392.777344 1973.265625 418.179688 1964.660156 466.113281 C 1961.476562 468.917969 1958.289062 471.660156 1955.101562 474.464844 C 1954.535156 475.003906 1954.109375 475.640625 1953.832031 476.371094 C 1953.550781 477.101562 1953.445312 477.859375 1953.507812 478.636719 C 1936.039062 478.320312 1918.636719 479.253906 1901.300781 481.441406 C 1910.613281 475.285156 1918.632812 467.753906 1925.363281 458.847656 C 1932.632812 449.125 1952.804688 419.804688 1938.78125 409.160156 C 1926.765625 400.078125 1888.363281 425.734375 1878.960938 431.851562 C 1854.769531 447.5625 1840.269531 466.75 1834.820312 493.332031 C 1834.667969 494.035156 1834.65625 494.742188 1834.789062 495.449219 C 1834.921875 496.15625 1835.1875 496.808594 1835.585938 497.410156 C 1821.179688 503.148438 1807.25 509.902344 1793.195312 516.691406 C 1776.6875 524.691406 1750.425781 533.839844 1742.042969 550.445312 C 1738.535156 557.359375 1749.722656 563.449219 1753.230469 556.46875 C 1760.71875 541.679688 1790.105469 531.671875 1804.734375 524.597656 C 1817.097656 518.636719 1829.371094 512.835938 1842.023438 507.929688 C 1843.617188 511.113281 1842.4375 516.535156 1843.136719 520.101562 C 1844.371094 525.5 1846.34375 530.609375 1849.066406 535.433594 C 1854.714844 544.929688 1861.84375 553.140625 1870.449219 560.070312 C 1880.394531 568.929688 1896.425781 590.632812 1910.257812 575.460938 C 1924.632812 559.527344 1922.019531 536.070312 1909.589844 520.390625 C 1900.28125 508.691406 1883.199219 502.128906 1866.945312 499.800781 C 1871.597656 498.558594 1876.285156 497.28125 1881.222656 496.328125 C 1903.242188 492.273438 1925.445312 490.246094 1947.832031 490.238281 C 1941.777344 502.988281 1945.347656 521.917969 1949.332031 533.457031 C 1953.667969 545.855469 1973.523438 585.3125 1991.65625 584.449219 C 2008.804688 583.75 2005.105469 549.550781 2004.054688 540.597656 C 2003.503906 535.929688 2002.53125 531.355469 2001.132812 526.871094 C 1999.734375 522.386719 1997.9375 518.066406 1995.742188 513.914062 C 1993.546875 509.761719 1990.988281 505.84375 1988.066406 502.164062 C 1985.144531 498.484375 1981.914062 495.105469 1978.367188 492.023438 C 1994.304688 493.820312 2009.835938 497.386719 2024.960938 502.734375 C 2025.203125 503.765625 2025.746094 504.605469 2026.585938 505.25 C 2026.621094 505.851562 2026.765625 506.429688 2027.019531 506.976562 C 2027.269531 507.523438 2027.613281 508.007812 2028.046875 508.425781 C 2028.480469 508.847656 2028.976562 509.171875 2029.53125 509.40625 C 2030.089844 509.636719 2030.667969 509.761719 2031.273438 509.777344 C 2031.8125 509.777344 2032.386719 509.9375 2032.929688 510 C 2037.488281 517.203125 2043.445312 533.167969 2046.316406 536.867188 C 2055.238281 548.402344 2068.273438 555.222656 2082.203125 560.609375 C 2095.429688 565.710938 2152.316406 589.292969 2162.453125 573.359375 C 2170.960938 560.164062 2144.828125 534.222656 2134.820312 527.371094 Z M 1877.175781 448.011719 C 1880.523438 445.429688 1910.257812 426.242188 1923.421875 421.367188 C 1910.671875 433.316406 1897.128906 444.25 1883.453125 455.628906 C 1873.382812 463.945312 1863.3125 474.050781 1851.964844 481.539062 C 1853.222656 478.222656 1854.710938 475.007812 1856.421875 471.902344 C 1858.136719 468.792969 1860.058594 465.820312 1862.191406 462.984375 C 1864.324219 460.148438 1866.644531 457.476562 1869.152344 454.96875 C 1871.664062 452.460938 1874.339844 450.140625 1877.175781 448.011719 Z M 1896.296875 524.277344 C 1897.355469 525.191406 1898.347656 526.175781 1899.273438 527.222656 C 1900.195312 528.269531 1901.050781 529.375 1901.828125 530.535156 C 1902.605469 531.695312 1903.300781 532.90625 1903.917969 534.160156 C 1904.535156 535.414062 1905.0625 536.703125 1905.507812 538.03125 C 1905.953125 539.355469 1906.304688 540.703125 1906.566406 542.078125 C 1906.832031 543.449219 1907.003906 544.835938 1907.082031 546.230469 C 1907.160156 547.625 1907.144531 549.019531 1907.035156 550.414062 C 1906.925781 551.808594 1906.726562 553.1875 1906.433594 554.554688 C 1906.433594 554.554688 1906.433594 554.746094 1906.433594 554.808594 C 1902.386719 545.503906 1893.683594 537.757812 1887.628906 529.695312 C 1883.234375 523.855469 1878.378906 518.429688 1873.066406 513.410156 C 1877.324219 514.273438 1881.421875 515.625 1885.359375 517.464844 C 1889.296875 519.300781 1892.964844 521.570312 1896.363281 524.277344 Z M 1876.1875 535.6875 C 1881.988281 543.113281 1894.546875 553.789062 1895.308594 562.96875 C 1895.402344 563.667969 1895.609375 564.335938 1895.921875 564.964844 C 1896.238281 565.597656 1896.644531 566.160156 1897.148438 566.65625 C 1897.648438 567.152344 1898.21875 567.554688 1898.851562 567.863281 C 1899.488281 568.167969 1900.15625 568.367188 1900.855469 568.449219 C 1900.855469 569.472656 1900.855469 568.929688 1897.957031 567.464844 C 1891.964844 564.53125 1886.226562 557.648438 1881.382812 553.441406 C 1875.03125 548.296875 1869.292969 542.539062 1864.171875 536.164062 C 1861.949219 533.167969 1860.097656 529.953125 1858.621094 526.523438 C 1857.148438 523.09375 1856.085938 519.542969 1855.441406 515.863281 C 1863.539062 521.253906 1870.476562 527.859375 1876.25 535.6875 Z M 1870.101562 483.484375 C 1876.699219 478.097656 1882.847656 472.296875 1889.222656 467.101562 C 1901.109375 456.964844 1913.160156 447.375 1924.824219 437.175781 C 1923.164062 440.171875 1921.636719 442.816406 1920.871094 443.898438 C 1915.390625 453.054688 1908.453125 460.925781 1900.058594 467.515625 C 1891.082031 474.730469 1881.09375 480.050781 1870.101562 483.484375 Z M 1988.628906 529.824219 C 1989.679688 533.011719 1996.53125 566.890625 1989.777344 570.683594 C 1985.21875 573.328125 1945.539062 514.558594 1959.371094 494.476562 C 1974 501.332031 1984.101562 515.671875 1988.628906 529.824219 Z M 2053.039062 410.210938 C 2027.035156 419.105469 2003.863281 434.082031 1982.734375 451.007812 C 1994.8125 425.957031 2022.984375 412.125 2053.039062 410.210938 Z M 2068.019531 418.273438 C 2048.449219 445.015625 2013.582031 464.457031 1978.460938 470.605469 C 2004.597656 448.136719 2033.695312 427.359375 2068.050781 418.273438 Z M 2135.90625 563.542969 C 2111.332031 559.398438 2076.082031 551.496094 2059.128906 533.105469 C 2055.238281 528.898438 2052.433594 520.359375 2048.992188 512.644531 C 2068.402344 515.597656 2087.386719 520.273438 2105.945312 526.667969 C 2118.917969 531.480469 2131.441406 537.855469 2139.539062 548.628906 C 2142.054688 551.972656 2146.199219 556.882812 2146.804688 561.089844 C 2147.761719 567.589844 2146.773438 565.359375 2135.90625 563.542969 Z M 2135.90625 563.542969 " fill-opacity="1" fill-rule="nonzero"/><path fill="#ffffff" d="M 2029.996094 695.585938 C 1959.882812 665.625 1896.140625 619.667969 1818.054688 607.558594 C 1807.058594 605.867188 1705.933594 600.355469 1707.398438 627.285156 C 1706.882812 628.042969 1706.597656 628.875 1706.539062 629.789062 C 1706.484375 630.703125 1706.664062 631.570312 1707.082031 632.382812 C 1716.101562 646.855469 1738.21875 658.359375 1752.910156 667.21875 C 1783.1875 685.511719 1813.273438 705.910156 1846.324219 719.933594 C 1853.484375 722.894531 1860.785156 725.445312 1868.230469 727.582031 C 1875.675781 729.714844 1883.21875 731.425781 1890.859375 732.707031 C 1898.5 733.988281 1906.1875 734.835938 1913.921875 735.246094 C 1921.660156 735.660156 1929.394531 735.632812 1937.125 735.167969 C 1970.71875 732.585938 1997.328125 711.679688 2029.550781 705.910156 C 2035.511719 704.730469 2034.808594 697.65625 2029.996094 695.585938 Z M 1769.132812 663.714844 C 1756.128906 655.875 1735.476562 646.40625 1723.492188 634.742188 C 1741.839844 634.207031 1760.089844 635.269531 1778.25 637.929688 C 1777.496094 645.421875 1778.304688 652.742188 1780.671875 659.890625 C 1782.136719 664.382812 1783.1875 668.84375 1784.527344 673.242188 C 1779.363281 670.085938 1774.296875 666.902344 1769.132812 663.808594 Z M 1799.285156 682.199219 C 1799.558594 681.082031 1799.421875 680.019531 1798.867188 679.011719 C 1795.234375 672.03125 1794.121094 664.957031 1791.855469 657.625 C 1789.984375 651.761719 1789.273438 645.757812 1789.722656 639.617188 C 1795.523438 640.605469 1801.324219 641.660156 1806.835938 642.804688 C 1811.808594 643.921875 1816.589844 645.386719 1821.339844 646.917969 C 1819.519531 664.828125 1825.097656 684.558594 1833.289062 701.449219 C 1821.625 695.710938 1810.40625 689.082031 1799.28125 682.292969 Z M 1851.011719 709.894531 L 1849.894531 709.382812 C 1849.816406 708.742188 1849.625 708.136719 1849.320312 707.566406 C 1839.757812 691.21875 1831.886719 670.375 1832.683594 651.0625 C 1842.882812 655.109375 1852.699219 659.792969 1862.546875 664.667969 C 1862.457031 664.855469 1862.382812 665.046875 1862.324219 665.242188 C 1860.953125 675.761719 1864.652344 690.453125 1867.871094 700.589844 C 1870.035156 707.046875 1873.085938 713.0625 1877.015625 718.628906 C 1868.148438 716.351562 1859.480469 713.472656 1851.011719 709.988281 Z M 1892.792969 721.496094 C 1889.515625 717.652344 1886.652344 713.523438 1884.199219 709.109375 C 1881.75 704.691406 1879.757812 700.078125 1878.226562 695.265625 C 1875.765625 687.066406 1874.269531 678.695312 1873.734375 670.152344 C 1879.535156 673.019531 1885.367188 675.761719 1891.359375 678.40625 C 1897.351562 681.050781 1904.105469 683.984375 1910.960938 686.597656 C 1910.191406 687.667969 1909.894531 688.859375 1910.066406 690.167969 C 1911.046875 699.066406 1913.449219 707.566406 1917.269531 715.664062 C 1918.671875 718.4375 1919.851562 721.464844 1921.382812 724.269531 C 1911.855469 724.308594 1902.390625 723.585938 1892.984375 722.101562 C 1892.949219 721.921875 1892.882812 721.75 1892.792969 721.589844 Z M 1962.75 718.5 C 1953.695312 721.160156 1944.464844 722.839844 1935.054688 723.535156 C 1934.460938 722.84375 1933.738281 722.332031 1932.886719 722.003906 C 1932.027344 721.65625 1930.78125 717.449219 1930.273438 716.394531 C 1928.871094 713.527344 1927.339844 710.722656 1926.066406 707.792969 C 1923.730469 702.277344 1922.285156 696.542969 1921.730469 690.582031 C 1933.34375 695.019531 1945.226562 698.535156 1957.382812 701.125 C 1969.542969 703.71875 1981.828125 705.355469 1994.238281 706.039062 C 1983.960938 710.773438 1973.464844 714.960938 1962.75 718.59375 Z M 1846.164062 644.273438 C 1811.105469 627.605469 1764.320312 622.152344 1723.941406 623.90625 C 1738.539062 618.839844 1780.542969 615.207031 1780.765625 615.207031 C 1811.96875 614.792969 1842.691406 622.21875 1871.628906 632.640625 C 1918.160156 649.371094 1960.230469 674.675781 2004.46875 695.679688 C 1947.355469 698.390625 1894.738281 667.441406 1846.164062 644.367188 Z M 1846.164062 644.273438 " fill-opacity="1" fill-rule="nonzero"/><path fill="#ffffff" d="M 2205.128906 632.160156 C 2187.109375 623.625 2168.453125 616.835938 2149.164062 611.796875 C 2129.875 606.753906 2110.285156 603.542969 2090.394531 602.171875 C 2063.367188 600.832031 2015.019531 602.171875 1993.886719 619.445312 C 1993.265625 619.890625 1992.777344 620.453125 1992.421875 621.132812 C 1992.070312 621.8125 1991.886719 622.535156 1991.878906 623.300781 C 1991.578125 623.773438 1991.34375 624.277344 1991.171875 624.808594 C 1991.003906 625.34375 1990.90625 625.890625 1990.882812 626.449219 C 1990.855469 627.007812 1990.902344 627.5625 1991.023438 628.109375 C 1991.144531 628.65625 1991.335938 629.179688 1991.59375 629.675781 C 1997.679688 640.957031 2015.816406 646.34375 2027.257812 651.667969 C 2048.417969 661.515625 2069.136719 669.195312 2092.910156 672.09375 C 2130.488281 676.71875 2179.472656 668.078125 2206.277344 641.660156 C 2206.457031 641.503906 2206.625 641.34375 2206.785156 641.167969 C 2206.945312 640.996094 2207.09375 640.8125 2207.230469 640.621094 C 2207.367188 640.425781 2207.492188 640.226562 2207.601562 640.019531 C 2207.714844 639.8125 2207.816406 639.597656 2207.902344 639.378906 C 2207.988281 639.160156 2208.058594 638.933594 2208.117188 638.707031 C 2208.175781 638.476562 2208.21875 638.246094 2208.25 638.011719 C 2208.277344 637.777344 2208.292969 637.542969 2208.292969 637.308594 C 2208.296875 637.070312 2208.28125 636.835938 2208.253906 636.601562 C 2208.226562 636.367188 2208.183594 636.136719 2208.125 635.90625 C 2208.070312 635.679688 2207.996094 635.453125 2207.914062 635.234375 C 2207.828125 635.011719 2207.730469 634.796875 2207.621094 634.589844 C 2207.507812 634.382812 2207.386719 634.179688 2207.25 633.988281 C 2207.113281 633.796875 2206.964844 633.613281 2206.808594 633.4375 C 2206.648438 633.261719 2206.480469 633.097656 2206.300781 632.945312 C 2206.125 632.789062 2205.9375 632.648438 2205.738281 632.515625 C 2205.542969 632.386719 2205.339844 632.265625 2205.128906 632.160156 Z M 2094.027344 659.730469 C 2083.574219 658.28125 2073.308594 656.003906 2063.222656 652.898438 C 2053.140625 649.792969 2043.371094 645.894531 2033.917969 641.210938 C 2026.203125 637.644531 2011.609375 633.371094 2005.234375 626.519531 C 2026.9375 611.253906 2078.25 612.71875 2101.800781 615.460938 C 2132.390625 619.226562 2161.945312 626.949219 2190.46875 638.632812 C 2165.035156 657.785156 2124.238281 663.457031 2094.027344 659.730469 Z M 2094.027344 659.730469 " fill-opacity="1" fill-rule="nonzero"/><path fill="#ffffff" d="M 2146.996094 454.640625 C 2146.605469 454.640625 2146.21875 454.679688 2145.832031 454.753906 C 2145.449219 454.832031 2145.078125 454.945312 2144.714844 455.09375 C 2144.351562 455.242188 2144.011719 455.425781 2143.683594 455.644531 C 2143.359375 455.863281 2143.058594 456.109375 2142.78125 456.386719 C 2142.503906 456.660156 2142.257812 456.964844 2142.039062 457.289062 C 2141.824219 457.613281 2141.640625 457.957031 2141.488281 458.320312 C 2141.339844 458.679688 2141.226562 459.054688 2141.148438 459.4375 C 2141.074219 459.820312 2141.035156 460.207031 2141.035156 460.601562 C 2141.035156 460.992188 2141.074219 461.378906 2141.148438 461.761719 C 2141.226562 462.144531 2141.339844 462.519531 2141.488281 462.878906 C 2141.640625 463.242188 2141.824219 463.585938 2142.039062 463.910156 C 2142.257812 464.234375 2142.503906 464.539062 2142.78125 464.8125 C 2143.058594 465.089844 2143.359375 465.335938 2143.683594 465.554688 C 2144.011719 465.773438 2144.351562 465.957031 2144.714844 466.105469 C 2145.078125 466.253906 2145.449219 466.367188 2145.832031 466.445312 C 2146.21875 466.519531 2146.605469 466.558594 2146.996094 466.558594 C 2147.386719 466.558594 2147.773438 466.519531 2148.160156 466.445312 C 2148.542969 466.367188 2148.914062 466.253906 2149.277344 466.105469 C 2149.636719 465.957031 2149.980469 465.773438 2150.308594 465.554688 C 2150.632812 465.335938 2150.933594 465.089844 2151.210938 464.8125 C 2151.488281 464.539062 2151.734375 464.234375 2151.949219 463.910156 C 2152.167969 463.585938 2152.351562 463.242188 2152.503906 462.878906 C 2152.652344 462.519531 2152.765625 462.144531 2152.839844 461.761719 C 2152.917969 461.378906 2152.957031 460.992188 2152.957031 460.601562 C 2152.957031 460.207031 2152.917969 459.820312 2152.839844 459.4375 C 2152.765625 459.054688 2152.652344 458.679688 2152.5 458.320312 C 2152.351562 457.957031 2152.167969 457.613281 2151.949219 457.289062 C 2151.734375 456.964844 2151.488281 456.660156 2151.210938 456.386719 C 2150.933594 456.109375 2150.632812 455.863281 2150.308594 455.644531 C 2149.980469 455.425781 2149.636719 455.242188 2149.277344 455.09375 C 2148.914062 454.945312 2148.542969 454.832031 2148.160156 454.753906 C 2147.773438 454.679688 2147.386719 454.640625 2146.996094 454.640625 Z M 2146.996094 454.640625 " fill-opacity="1" fill-rule="nonzero"/><path fill="#ffffff" d="M 2213.445312 463.753906 C 2213.035156 463.726562 2212.625 463.738281 2212.21875 463.792969 C 2211.808594 463.847656 2211.410156 463.941406 2211.023438 464.078125 C 2210.632812 464.214844 2210.265625 464.390625 2209.910156 464.601562 C 2209.558594 464.816406 2209.230469 465.0625 2208.929688 465.34375 C 2208.628906 465.621094 2208.359375 465.929688 2208.121094 466.265625 C 2207.882812 466.601562 2207.679688 466.960938 2207.515625 467.335938 C 2207.351562 467.714844 2207.226562 468.105469 2207.144531 468.507812 C 2207.058594 468.910156 2207.019531 469.320312 2207.019531 469.730469 C 2207.019531 470.140625 2207.058594 470.550781 2207.144531 470.953125 C 2207.226562 471.355469 2207.351562 471.746094 2207.515625 472.125 C 2207.679688 472.5 2207.882812 472.859375 2208.121094 473.195312 C 2208.359375 473.53125 2208.628906 473.839844 2208.929688 474.117188 C 2209.230469 474.398438 2209.558594 474.644531 2209.910156 474.859375 C 2210.265625 475.070312 2210.632812 475.246094 2211.023438 475.382812 C 2211.410156 475.519531 2211.808594 475.617188 2212.21875 475.667969 C 2212.625 475.722656 2213.035156 475.738281 2213.445312 475.707031 C 2213.855469 475.738281 2214.265625 475.722656 2214.675781 475.667969 C 2215.082031 475.617188 2215.480469 475.519531 2215.871094 475.382812 C 2216.257812 475.246094 2216.628906 475.070312 2216.980469 474.859375 C 2217.335938 474.644531 2217.660156 474.398438 2217.960938 474.117188 C 2218.265625 473.839844 2218.535156 473.53125 2218.773438 473.195312 C 2219.011719 472.859375 2219.210938 472.5 2219.375 472.125 C 2219.539062 471.746094 2219.664062 471.355469 2219.75 470.953125 C 2219.832031 470.550781 2219.875 470.140625 2219.875 469.730469 C 2219.875 469.320312 2219.832031 468.910156 2219.75 468.507812 C 2219.664062 468.105469 2219.539062 467.714844 2219.375 467.335938 C 2219.210938 466.960938 2219.011719 466.601562 2218.773438 466.265625 C 2218.535156 465.929688 2218.265625 465.621094 2217.960938 465.34375 C 2217.660156 465.0625 2217.335938 464.816406 2216.980469 464.601562 C 2216.628906 464.390625 2216.257812 464.214844 2215.871094 464.078125 C 2215.480469 463.941406 2215.082031 463.847656 2214.675781 463.792969 C 2214.265625 463.738281 2213.855469 463.726562 2213.445312 463.753906 Z M 2213.445312 463.753906 " fill-opacity="1" fill-rule="nonzero"/><path fill="#ffffff" d="M 2215.835938 512.453125 C 2215.679688 511.949219 2215.496094 511.453125 2215.28125 510.972656 C 2215.066406 510.488281 2214.824219 510.019531 2214.554688 509.566406 C 2214.285156 509.109375 2213.992188 508.671875 2213.671875 508.253906 C 2213.347656 507.832031 2213.003906 507.433594 2212.636719 507.054688 C 2212.269531 506.675781 2211.878906 506.316406 2211.46875 505.984375 C 2211.0625 505.652344 2210.632812 505.34375 2210.1875 505.058594 C 2209.742188 504.773438 2209.28125 504.519531 2208.804688 504.289062 C 2208.328125 504.058594 2207.839844 503.859375 2207.339844 503.6875 C 2206.839844 503.515625 2206.332031 503.375 2205.816406 503.261719 C 2205.296875 503.152344 2204.777344 503.070312 2204.25 503.019531 C 2203.726562 502.96875 2203.199219 502.949219 2202.667969 502.960938 C 2202.140625 502.972656 2201.613281 503.011719 2201.089844 503.085938 C 2200.566406 503.160156 2200.050781 503.261719 2199.539062 503.398438 C 2199.027344 503.53125 2198.527344 503.695312 2198.035156 503.886719 C 2197.542969 504.082031 2197.0625 504.300781 2196.597656 504.550781 C 2196.132812 504.800781 2195.683594 505.074219 2195.25 505.378906 C 2187.980469 510.222656 2185.050781 519.113281 2193.242188 524.5 C 2194.25 525.183594 2195.367188 525.523438 2196.585938 525.519531 C 2197.574219 525.871094 2198.625 526.160156 2199.773438 526.445312 C 2204.523438 527.785156 2208.378906 528.199219 2212.523438 524.851562 C 2213.40625 524.117188 2214.15625 523.265625 2214.773438 522.296875 C 2215.394531 521.328125 2215.851562 520.289062 2216.148438 519.179688 C 2216.445312 518.070312 2216.566406 516.941406 2216.511719 515.792969 C 2216.460938 514.644531 2216.234375 513.53125 2215.835938 512.453125 Z M 2215.835938 512.453125 " fill-opacity="1" fill-rule="nonzero"/><path fill="#ffffff" d="M 2256.503906 489.855469 C 2254.878906 484.535156 2249.621094 484.34375 2244.585938 484.664062 C 2237.125 485.109375 2236.394531 494.734375 2242.355469 496.296875 C 2242.914062 497.148438 2243.640625 497.828125 2244.527344 498.335938 C 2245.414062 498.839844 2246.367188 499.117188 2247.390625 499.164062 C 2253.125 499.640625 2258.226562 495.308594 2256.503906 489.855469 Z M 2256.503906 489.855469 " fill-opacity="1" fill-rule="nonzero"/><path fill="#ffffff" d="M 2081.980469 693.417969 C 2081.324219 693.4375 2080.6875 693.554688 2080.066406 693.773438 C 2079.449219 693.988281 2078.875 694.296875 2078.351562 694.6875 C 2077.828125 695.082031 2077.375 695.546875 2076.992188 696.078125 C 2076.609375 696.613281 2076.316406 697.191406 2076.113281 697.816406 C 2075.734375 698.464844 2075.449219 699.152344 2075.25 699.882812 C 2075.054688 700.609375 2074.957031 701.347656 2074.960938 702.101562 C 2074.960938 702.851562 2075.058594 703.59375 2075.257812 704.320312 C 2075.457031 705.046875 2075.746094 705.734375 2076.128906 706.382812 C 2076.507812 707.03125 2076.96875 707.617188 2077.507812 708.144531 C 2078.042969 708.671875 2078.640625 709.121094 2079.296875 709.488281 C 2079.957031 709.855469 2080.648438 710.128906 2081.378906 710.3125 C 2082.109375 710.496094 2082.851562 710.578125 2083.605469 710.5625 C 2089.183594 710.976562 2094.664062 707.058594 2093.804688 701.578125 C 2093.621094 700.953125 2093.386719 700.347656 2093.101562 699.765625 C 2092.816406 699.183594 2092.484375 698.628906 2092.105469 698.101562 C 2091.726562 697.574219 2091.304688 697.082031 2090.839844 696.628906 C 2090.375 696.175781 2089.875 695.761719 2089.339844 695.394531 C 2088.808594 695.027344 2088.246094 694.703125 2087.65625 694.433594 C 2087.066406 694.160156 2086.457031 693.9375 2085.832031 693.769531 C 2085.203125 693.601562 2084.566406 693.488281 2083.917969 693.429688 C 2083.273438 693.371094 2082.625 693.367188 2081.980469 693.417969 Z M 2081.980469 693.417969 " fill-opacity="1" fill-rule="nonzero"/><path fill="#ffffff" d="M 2150.214844 721.304688 C 2147.824219 713.050781 2138.933594 710.277344 2130.488281 709.480469 C 2129.878906 708.875 2129.167969 708.425781 2128.359375 708.136719 C 2127.550781 707.84375 2126.71875 707.742188 2125.863281 707.824219 C 2113.753906 708.300781 2104.320312 720.570312 2108.621094 731.3125 C 2112.480469 741.0625 2126.183594 749.320312 2137.464844 746.738281 C 2148.75 744.15625 2153.019531 731.058594 2150.214844 721.304688 Z M 2136.414062 734.054688 C 2133.003906 737.527344 2126.34375 733.480469 2123.667969 731.121094 C 2120.988281 728.761719 2119.746094 726.816406 2121.085938 723.695312 C 2121.519531 722.558594 2122.21875 721.625 2123.1875 720.890625 C 2123.585938 721 2123.988281 721.074219 2124.398438 721.113281 C 2127.808594 721.113281 2133.609375 720.890625 2136.414062 723.121094 C 2139.21875 725.351562 2138.710938 731.664062 2136.414062 733.925781 Z M 2136.414062 734.054688 " fill-opacity="1" fill-rule="nonzero"/><path fill="#ffffff" d="M 2080.511719 734.5625 C 2074.648438 729.589844 2067.351562 731.597656 2060.496094 732.777344 C 2053.644531 733.957031 2054.984375 741.828125 2060.210938 743.835938 C 2060.242188 744.839844 2060.425781 745.8125 2060.757812 746.757812 C 2061.089844 747.703125 2061.558594 748.574219 2062.160156 749.375 C 2062.761719 750.179688 2063.46875 750.871094 2064.285156 751.453125 C 2065.097656 752.035156 2065.984375 752.480469 2066.9375 752.792969 C 2072.257812 754.707031 2079.300781 753.941406 2082.488281 749.160156 C 2082.851562 748.597656 2083.160156 748.003906 2083.417969 747.386719 C 2083.675781 746.769531 2083.878906 746.132812 2084.023438 745.480469 C 2084.167969 744.828125 2084.257812 744.164062 2084.285156 743.496094 C 2084.3125 742.828125 2084.28125 742.160156 2084.191406 741.496094 C 2084.101562 740.832031 2083.953125 740.183594 2083.75 739.546875 C 2083.542969 738.90625 2083.285156 738.292969 2082.972656 737.703125 C 2082.65625 737.109375 2082.292969 736.550781 2081.878906 736.023438 C 2081.46875 735.496094 2081.011719 735.007812 2080.511719 734.5625 Z M 2080.511719 734.5625 " fill-opacity="1" fill-rule="nonzero"/><path fill="#ffffff" d="M 1811.96875 561.628906 C 1811.578125 561.628906 1811.1875 561.667969 1810.804688 561.746094 C 1810.421875 561.820312 1810.046875 561.933594 1809.6875 562.085938 C 1809.324219 562.234375 1808.980469 562.417969 1808.65625 562.636719 C 1808.332031 562.851562 1808.03125 563.097656 1807.753906 563.375 C 1807.476562 563.652344 1807.230469 563.953125 1807.011719 564.28125 C 1806.792969 564.605469 1806.609375 564.949219 1806.460938 565.308594 C 1806.3125 565.671875 1806.199219 566.042969 1806.121094 566.429688 C 1806.046875 566.8125 1806.007812 567.199219 1806.007812 567.589844 C 1806.007812 567.980469 1806.046875 568.371094 1806.121094 568.753906 C 1806.199219 569.136719 1806.3125 569.507812 1806.460938 569.871094 C 1806.609375 570.234375 1806.792969 570.578125 1807.011719 570.902344 C 1807.230469 571.226562 1807.476562 571.527344 1807.753906 571.804688 C 1808.03125 572.082031 1808.332031 572.328125 1808.65625 572.546875 C 1808.980469 572.761719 1809.324219 572.945312 1809.6875 573.097656 C 1810.046875 573.246094 1810.421875 573.359375 1810.804688 573.4375 C 1811.1875 573.511719 1811.578125 573.550781 1811.96875 573.550781 C 1812.359375 573.550781 1812.746094 573.511719 1813.128906 573.4375 C 1813.515625 573.359375 1813.886719 573.246094 1814.25 573.097656 C 1814.609375 572.945312 1814.953125 572.761719 1815.277344 572.546875 C 1815.605469 572.328125 1815.90625 572.082031 1816.183594 571.804688 C 1816.457031 571.527344 1816.707031 571.226562 1816.921875 570.902344 C 1817.140625 570.578125 1817.324219 570.234375 1817.472656 569.871094 C 1817.625 569.507812 1817.738281 569.136719 1817.8125 568.753906 C 1817.890625 568.371094 1817.925781 567.980469 1817.925781 567.589844 C 1817.925781 567.199219 1817.890625 566.8125 1817.8125 566.429688 C 1817.738281 566.042969 1817.625 565.671875 1817.472656 565.308594 C 1817.324219 564.949219 1817.140625 564.605469 1816.921875 564.28125 C 1816.707031 563.953125 1816.457031 563.652344 1816.183594 563.375 C 1815.90625 563.097656 1815.605469 562.851562 1815.277344 562.636719 C 1814.953125 562.417969 1814.609375 562.234375 1814.25 562.085938 C 1813.886719 561.933594 1813.515625 561.820312 1813.128906 561.746094 C 1812.746094 561.667969 1812.359375 561.628906 1811.96875 561.628906 Z M 1811.96875 561.628906 " fill-opacity="1" fill-rule="nonzero"/><path fill="#ffffff" d="M 1804.890625 457.253906 C 1804.480469 457.222656 1804.070312 457.234375 1803.664062 457.289062 C 1803.253906 457.34375 1802.855469 457.441406 1802.46875 457.574219 C 1802.082031 457.710938 1801.710938 457.886719 1801.355469 458.101562 C 1801.003906 458.3125 1800.679688 458.558594 1800.375 458.839844 C 1800.074219 459.121094 1799.804688 459.429688 1799.566406 459.765625 C 1799.328125 460.101562 1799.128906 460.457031 1798.960938 460.835938 C 1798.796875 461.214844 1798.675781 461.601562 1798.589844 462.007812 C 1798.507812 462.410156 1798.464844 462.816406 1798.464844 463.230469 C 1798.464844 463.640625 1798.507812 464.046875 1798.589844 464.453125 C 1798.675781 464.855469 1798.796875 465.246094 1798.960938 465.621094 C 1799.128906 466 1799.328125 466.355469 1799.566406 466.691406 C 1799.804688 467.027344 1800.074219 467.335938 1800.375 467.617188 C 1800.679688 467.898438 1801.003906 468.144531 1801.359375 468.355469 C 1801.710938 468.570312 1802.082031 468.746094 1802.46875 468.882812 C 1802.859375 469.019531 1803.253906 469.113281 1803.664062 469.167969 C 1804.070312 469.222656 1804.480469 469.234375 1804.890625 469.203125 C 1805.304688 469.234375 1805.710938 469.222656 1806.121094 469.167969 C 1806.527344 469.113281 1806.925781 469.019531 1807.316406 468.882812 C 1807.703125 468.746094 1808.074219 468.570312 1808.425781 468.359375 C 1808.78125 468.144531 1809.105469 467.898438 1809.410156 467.617188 C 1809.710938 467.335938 1809.980469 467.027344 1810.21875 466.691406 C 1810.457031 466.355469 1810.65625 466 1810.820312 465.621094 C 1810.988281 465.246094 1811.109375 464.855469 1811.195312 464.453125 C 1811.277344 464.046875 1811.320312 463.640625 1811.320312 463.230469 C 1811.320312 462.816406 1811.277344 462.410156 1811.195312 462.007812 C 1811.109375 461.601562 1810.988281 461.214844 1810.820312 460.835938 C 1810.65625 460.457031 1810.457031 460.101562 1810.21875 459.765625 C 1809.980469 459.429688 1809.710938 459.121094 1809.410156 458.839844 C 1809.105469 458.558594 1808.78125 458.3125 1808.425781 458.101562 C 1808.074219 457.886719 1807.703125 457.710938 1807.316406 457.574219 C 1806.925781 457.441406 1806.527344 457.34375 1806.121094 457.289062 C 1805.710938 457.234375 1805.304688 457.222656 1804.890625 457.253906 Z M 1804.890625 457.253906 " fill-opacity="1" fill-rule="nonzero"/><path fill="#ffffff" d="M 1756.894531 491.800781 C 1749.820312 485.808594 1737.359375 490.910156 1737.773438 499.738281 C 1737.8125 500.226562 1737.910156 500.703125 1738.0625 501.167969 C 1738.210938 501.636719 1738.414062 502.078125 1738.667969 502.496094 C 1738.921875 502.917969 1739.21875 503.300781 1739.5625 503.652344 C 1739.902344 504.003906 1740.28125 504.3125 1740.695312 504.574219 C 1741.109375 504.839844 1741.546875 505.050781 1742.007812 505.214844 C 1742.46875 505.375 1742.945312 505.484375 1743.433594 505.539062 C 1743.917969 505.589844 1744.40625 505.585938 1744.894531 505.527344 C 1745.378906 505.46875 1745.851562 505.355469 1746.3125 505.1875 C 1747.230469 505.515625 1748.171875 505.722656 1749.140625 505.8125 C 1750.109375 505.902344 1751.074219 505.867188 1752.035156 505.714844 C 1752.996094 505.5625 1753.921875 505.292969 1754.816406 504.90625 C 1755.707031 504.519531 1756.539062 504.03125 1757.308594 503.433594 C 1757.734375 503.070312 1758.113281 502.664062 1758.449219 502.214844 C 1758.785156 501.765625 1759.0625 501.285156 1759.289062 500.773438 C 1759.515625 500.261719 1759.679688 499.730469 1759.785156 499.179688 C 1759.890625 498.632812 1759.933594 498.078125 1759.914062 497.515625 C 1759.894531 496.957031 1759.8125 496.40625 1759.667969 495.867188 C 1759.523438 495.328125 1759.320312 494.808594 1759.058594 494.3125 C 1758.796875 493.820312 1758.484375 493.359375 1758.117188 492.933594 C 1757.753906 492.511719 1757.34375 492.132812 1756.894531 491.800781 Z M 1756.894531 491.800781 " fill-opacity="1" fill-rule="nonzero"/><g clip-path="url(#8194956e11)"><path fill="#1d863a" d="M 2614.605469 610.839844 C 2614.578125 610.359375 2614.496094 609.886719 2614.363281 609.425781 C 2614.230469 608.964844 2614.042969 608.523438 2613.808594 608.105469 C 2613.574219 607.683594 2613.296875 607.292969 2612.976562 606.9375 C 2612.652344 606.582031 2612.292969 606.265625 2611.898438 605.988281 C 2611.507812 605.710938 2611.085938 605.484375 2610.640625 605.304688 C 2610.195312 605.121094 2609.734375 604.992188 2609.261719 604.917969 C 2608.785156 604.839844 2608.308594 604.816406 2607.828125 604.847656 C 2607.347656 604.878906 2606.875 604.964844 2606.417969 605.101562 C 2572.058594 612.847656 2533.941406 636.015625 2508.890625 658.902344 C 2504.039062 663.414062 2499.4375 668.175781 2495.089844 673.179688 C 2498.277344 660.082031 2501.242188 646.886719 2503.917969 633.628906 C 2508.828125 625.53125 2512.398438 615.746094 2516.507812 609.375 C 2531.421875 586.074219 2550.035156 556.691406 2573.523438 540.179688 C 2595.007812 544.835938 2624.074219 531.351562 2602.78125 509.871094 C 2592.839844 499.800781 2572.539062 499.355469 2562.148438 509.234375 C 2553.734375 517.265625 2556.792969 524.5 2561.636719 532.46875 C 2561.699219 533.007812 2561.859375 533.519531 2562.117188 534 C 2547.359375 545.917969 2535.535156 561.917969 2524.539062 576.484375 C 2519.789062 582.855469 2514.976562 589.230469 2510.546875 595.605469 C 2511.601562 588.402344 2512.523438 581.199219 2513.351562 573.933594 C 2515.78125 549.457031 2516.386719 524.9375 2515.167969 500.375 C 2516.3125 499.914062 2517.226562 499.171875 2517.910156 498.144531 C 2539.644531 464.773438 2545.0625 408.90625 2506.5 382.835938 C 2506.242188 382.394531 2505.941406 381.984375 2505.597656 381.609375 C 2505.253906 381.230469 2504.875 380.894531 2504.460938 380.601562 C 2504.046875 380.304688 2503.605469 380.054688 2503.136719 379.851562 C 2502.667969 379.648438 2502.183594 379.5 2501.683594 379.398438 C 2501.183594 379.300781 2500.679688 379.253906 2500.167969 379.261719 C 2499.660156 379.269531 2499.15625 379.332031 2498.660156 379.445312 C 2498.160156 379.5625 2497.683594 379.726562 2497.21875 379.941406 C 2496.757812 380.160156 2496.324219 380.421875 2495.917969 380.730469 C 2459.332031 409.414062 2471.28125 466.144531 2502.292969 494.765625 C 2503.679688 517.503906 2503.457031 540.230469 2501.625 562.9375 C 2501.335938 566.125 2500.988281 568.929688 2500.636719 571.894531 C 2493.003906 548.019531 2482.53125 525.464844 2469.210938 504.230469 C 2475.425781 498.84375 2477.53125 490.527344 2466.566406 484.40625 C 2438.679688 468.503906 2432.113281 523.097656 2459.90625 513.121094 C 2473.480469 535.816406 2486.070312 562.300781 2491.777344 588.6875 C 2490.632812 585.121094 2489.210938 581.667969 2487.503906 578.332031 C 2484.289062 572.484375 2480.535156 567.007812 2476.242188 561.898438 C 2471.953125 556.785156 2467.207031 552.140625 2462.007812 547.957031 C 2456.429688 543.367188 2424.113281 521.726562 2419.746094 530.078125 C 2407.285156 553.980469 2411.238281 588.625 2421.246094 613.453125 C 2422.675781 616.949219 2424.410156 620.289062 2426.449219 623.46875 C 2428.484375 626.648438 2430.792969 629.621094 2433.371094 632.378906 C 2435.949219 635.140625 2438.757812 637.648438 2441.789062 639.898438 C 2444.824219 642.148438 2448.035156 644.105469 2451.425781 645.769531 C 2462.074219 651.285156 2474.3125 647.234375 2483.808594 651.761719 C 2484.824219 652.214844 2485.886719 652.425781 2486.996094 652.398438 C 2482.726562 671.203125 2477.914062 689.847656 2472.460938 708.652344 C 2468.332031 718.230469 2465.292969 728.140625 2463.347656 738.386719 C 2454.949219 765.085938 2444.78125 791.089844 2432.847656 816.40625 C 2433.835938 774.433594 2415.539062 730.132812 2380.449219 705.59375 C 2380.089844 705.320312 2379.699219 705.097656 2379.285156 704.921875 C 2378.867188 704.746094 2378.4375 704.625 2377.992188 704.550781 C 2377.546875 704.480469 2377.097656 704.464844 2376.648438 704.5 C 2376.199219 704.539062 2375.757812 704.628906 2375.332031 704.773438 C 2374.902344 704.917969 2374.5 705.113281 2374.117188 705.355469 C 2373.738281 705.597656 2373.390625 705.882812 2373.078125 706.207031 C 2372.765625 706.535156 2372.496094 706.894531 2372.273438 707.285156 C 2372.046875 707.675781 2371.875 708.089844 2371.75 708.523438 C 2370.386719 708.863281 2369.273438 709.585938 2368.402344 710.691406 C 2351.671875 732.234375 2356.992188 774.144531 2363.78125 798.019531 C 2369.742188 818.988281 2388.480469 846.652344 2408.976562 860.199219 C 2404.417969 867.496094 2399.667969 874.761719 2394.570312 881.839844 C 2379.664062 901.757812 2362.1875 919.085938 2342.140625 933.820312 C 2344.136719 928.160156 2345.136719 922.324219 2345.136719 916.324219 C 2345.136719 907.527344 2344.914062 897.871094 2340.613281 889.902344 C 2342.933594 887.722656 2344.726562 885.171875 2346 882.253906 C 2348.578125 876.261719 2347.304688 863.863281 2339.625 860.773438 C 2339.054688 859.992188 2338.347656 859.359375 2337.511719 858.875 C 2336.671875 858.394531 2335.773438 858.101562 2334.8125 858 C 2328.722656 857.296875 2322.351562 856.308594 2316.675781 859.019531 C 2314.226562 860.15625 2312.042969 861.675781 2310.121094 863.574219 C 2308.199219 865.476562 2306.65625 867.640625 2305.488281 870.078125 C 2305.183594 870.703125 2304.914062 871.347656 2304.679688 872.003906 C 2304.445312 872.660156 2304.25 873.328125 2304.09375 874.007812 C 2303.933594 874.683594 2303.8125 875.371094 2303.730469 876.0625 C 2303.652344 876.753906 2303.609375 877.449219 2303.605469 878.148438 C 2303.601562 878.84375 2303.636719 879.539062 2303.710938 880.230469 C 2303.789062 880.925781 2303.902344 881.613281 2304.054688 882.292969 C 2304.207031 882.972656 2304.394531 883.640625 2304.625 884.300781 C 2304.851562 884.957031 2305.113281 885.601562 2305.414062 886.230469 C 2305.714844 886.859375 2306.050781 887.472656 2306.417969 888.0625 C 2306.785156 888.65625 2307.1875 889.222656 2307.621094 889.769531 C 2308.054688 890.316406 2308.515625 890.835938 2309.007812 891.332031 C 2309.496094 891.824219 2310.015625 892.289062 2310.558594 892.726562 C 2311.101562 893.164062 2311.667969 893.566406 2312.257812 893.941406 C 2312.847656 894.3125 2313.457031 894.648438 2314.082031 894.953125 C 2314.710938 895.257812 2315.351562 895.527344 2316.011719 895.757812 C 2316.667969 895.988281 2317.335938 896.183594 2318.015625 896.339844 C 2321.859375 897.285156 2325.683594 897.210938 2329.488281 896.117188 C 2336.628906 909.820312 2330.445312 927.988281 2325.984375 941.246094 C 2325.734375 941.929688 2325.640625 942.632812 2325.703125 943.355469 C 2325.761719 944.082031 2325.972656 944.757812 2326.332031 945.390625 C 2304.789062 960.6875 2282.097656 974.839844 2260.074219 990.453125 C 2259.511719 990.636719 2258.984375 990.894531 2258.492188 991.222656 C 2258.003906 991.550781 2257.566406 991.941406 2257.183594 992.390625 C 2256.800781 992.839844 2256.488281 993.335938 2256.242188 993.871094 C 2255.996094 994.410156 2255.828125 994.96875 2255.738281 995.554688 C 2255.738281 995.839844 2255.738281 996.160156 2255.738281 996.445312 C 2255.007812 1002.246094 2263.007812 1003.394531 2266.832031 1000.652344 C 2301.410156 975.761719 2337.742188 955.046875 2368.660156 927.957031 C 2428.703125 956.160156 2559.882812 955.332031 2566.257812 873.167969 C 2566.308594 872.71875 2566.292969 872.269531 2566.214844 871.824219 C 2566.140625 871.375 2566.003906 870.949219 2565.804688 870.539062 C 2565.609375 870.132812 2565.359375 869.757812 2565.054688 869.417969 C 2564.753906 869.082031 2564.410156 868.789062 2564.027344 868.546875 C 2563.609375 867.792969 2563.042969 867.183594 2562.320312 866.714844 C 2561.597656 866.246094 2560.804688 865.976562 2559.949219 865.902344 C 2543.851562 863.804688 2527.710938 863.386719 2511.527344 864.648438 C 2495.34375 865.910156 2479.464844 868.824219 2463.890625 873.394531 C 2437.214844 881.011719 2414.617188 893.472656 2391.128906 905.644531 C 2395.113281 901.152344 2399.03125 896.660156 2402.664062 891.71875 C 2409.675781 882.15625 2416.242188 872.339844 2422.457031 862.269531 C 2423.125 861.59375 2423.644531 860.820312 2424.019531 859.941406 C 2427.429688 854.207031 2430.390625 848.660156 2433.578125 843.082031 C 2453.117188 826.160156 2478.421875 817.96875 2504.332031 813.953125 C 2514.40625 822.71875 2526.164062 828.453125 2540.761719 820.328125 C 2554.210938 812.871094 2555.261719 794.832031 2540.21875 788.136719 C 2524.285156 780.96875 2514.722656 791.324219 2504.300781 798.496094 C 2503.628906 798.4375 2502.964844 798.476562 2502.304688 798.621094 C 2501.644531 798.761719 2501.023438 799 2500.4375 799.335938 C 2499.847656 799.667969 2499.324219 800.082031 2498.863281 800.574219 C 2498.40625 801.066406 2498.027344 801.617188 2497.734375 802.226562 C 2497.542969 802.226562 2497.449219 802.417969 2497.257812 802.449219 C 2478.644531 810.066406 2461.210938 813.410156 2444.765625 821.378906 C 2454.507812 801.164062 2463.007812 780.433594 2470.261719 759.199219 C 2510.230469 767.453125 2559.5 747.375 2587.960938 722.164062 C 2605.394531 706.707031 2612.664062 689.433594 2617.507812 667.792969 C 2621.683594 648.257812 2614.734375 630.695312 2614.605469 610.839844 Z M 2513.988281 478.222656 C 2512.363281 452.410156 2510.007812 426.59375 2508.667969 400.554688 C 2527.089844 421.144531 2524.730469 453.621094 2513.988281 478.222656 Z M 2376.148438 794.925781 C 2371.398438 779.820312 2368.148438 751.007812 2373.472656 730.960938 C 2377.261719 746.640625 2383.542969 762.257812 2386.984375 777.9375 C 2389.660156 790.113281 2391.734375 802.574219 2395.398438 814.527344 C 2398.171875 823.417969 2402.953125 832.726562 2405.820312 842.03125 C 2399.132812 835.421875 2393.285156 828.140625 2388.277344 820.183594 C 2383.265625 812.230469 2379.222656 803.8125 2376.148438 794.925781 Z M 2333.824219 873.265625 C 2334.035156 873.839844 2334.167969 874.433594 2334.226562 875.046875 C 2334.285156 875.65625 2334.265625 876.261719 2334.167969 876.867188 C 2334.070312 877.472656 2333.898438 878.058594 2333.648438 878.617188 C 2333.402344 879.179688 2333.089844 879.699219 2332.707031 880.179688 C 2332.398438 880.667969 2332.050781 881.125 2331.667969 881.554688 C 2331.28125 881.988281 2330.867188 882.382812 2330.421875 882.75 C 2329.972656 883.113281 2329.5 883.441406 2329 883.730469 C 2328.5 884.019531 2327.984375 884.265625 2327.445312 884.472656 C 2326.90625 884.679688 2326.355469 884.84375 2325.789062 884.960938 C 2325.226562 885.078125 2324.65625 885.152344 2324.078125 885.179688 C 2323.503906 885.210938 2322.929688 885.191406 2322.355469 885.128906 C 2321.78125 885.066406 2321.21875 884.957031 2320.660156 884.800781 C 2314.699219 882.636719 2316.167969 875.242188 2319.894531 871.671875 C 2323.082031 868.773438 2327.164062 869.058594 2331.210938 869.566406 C 2331.632812 870.140625 2332.148438 870.613281 2332.753906 870.988281 C 2333.359375 871.363281 2334.015625 871.613281 2334.714844 871.734375 C 2332.070312 871.257812 2333.1875 870.714844 2333.824219 873.265625 Z M 2425.324219 931.144531 C 2439.65625 929.632812 2453.667969 926.636719 2467.363281 922.15625 C 2482.628906 917.023438 2497.671875 910.109375 2512.363281 903.671875 C 2525.304688 898.0625 2537.863281 887.449219 2551.34375 882.890625 C 2539.804688 928.082031 2477.179688 937.867188 2425.324219 931.109375 Z M 2535.757812 876.070312 C 2519.3125 883.496094 2503.34375 894.460938 2486.835938 901.3125 C 2465.707031 910.078125 2445.5625 916.515625 2422.328125 918.109375 C 2420.097656 918.265625 2399.796875 918.871094 2390.839844 919.988281 C 2437.722656 897.230469 2481.578125 874.285156 2535.757812 876.039062 Z M 2516.222656 808.664062 C 2515.808594 808.40625 2515.390625 807.898438 2514.976562 807.609375 C 2522.054688 797.792969 2545 826.0625 2516.222656 808.632812 Z M 2435.492188 613.707031 C 2426.121094 596.210938 2421.722656 567.589844 2427.300781 546.585938 C 2428.863281 576.484375 2444.382812 618.457031 2472.367188 639.171875 C 2470.433594 638.945312 2468.523438 638.601562 2466.632812 638.144531 C 2464.742188 637.683594 2462.886719 637.109375 2461.066406 636.425781 C 2459.242188 635.738281 2457.472656 634.945312 2455.746094 634.042969 C 2454.023438 633.136719 2452.363281 632.132812 2450.761719 631.027344 C 2449.160156 629.921875 2447.632812 628.722656 2446.175781 627.433594 C 2444.722656 626.140625 2443.351562 624.761719 2442.066406 623.304688 C 2440.777344 621.84375 2439.585938 620.3125 2438.484375 618.707031 C 2437.386719 617.101562 2436.386719 615.433594 2435.492188 613.707031 Z M 2440.433594 548.179688 C 2444.910156 550.574219 2449.140625 553.34375 2453.121094 556.496094 C 2457.101562 559.648438 2460.773438 563.125 2464.128906 566.9375 C 2467.488281 570.746094 2470.480469 574.820312 2473.105469 579.167969 C 2475.730469 583.511719 2477.949219 588.058594 2479.761719 592.800781 C 2483.332031 603.160156 2483.777344 614.28125 2485.304688 624.832031 C 2485.65625 627.445312 2486.484375 630.949219 2486.964844 634.390625 C 2458.566406 619.285156 2442.535156 576.132812 2440.433594 548.179688 Z M 2585.285156 707.535156 C 2572.21875 723.023438 2548.699219 735.519531 2528.90625 741.765625 C 2529.957031 741.414062 2482.949219 750.5 2477.53125 750.914062 C 2491.875 746.230469 2505.542969 740.046875 2518.527344 732.367188 C 2531.515625 724.683594 2543.515625 715.683594 2554.53125 705.367188 C 2579.550781 682.421875 2591.820312 659.539062 2604.28125 632.066406 C 2605.566406 638.183594 2606.277344 644.367188 2606.417969 650.613281 C 2606.289062 655.777344 2605.742188 660.894531 2604.765625 665.96875 C 2603.792969 671.042969 2602.40625 676 2600.609375 680.839844 C 2598.808594 685.683594 2596.625 690.34375 2594.054688 694.824219 C 2591.484375 699.304688 2588.558594 703.542969 2585.285156 707.535156 Z M 1643.402344 990.644531 C 1621.476562 974.964844 1598.78125 960.847656 1577.140625 945.582031 C 1577.507812 944.953125 1577.722656 944.273438 1577.785156 943.546875 C 1577.847656 942.824219 1577.75 942.117188 1577.492188 941.4375 C 1573.125 928.148438 1566.847656 909.980469 1573.988281 896.308594 C 1577.792969 897.390625 1581.617188 897.464844 1585.460938 896.53125 C 1586.140625 896.375 1586.808594 896.179688 1587.464844 895.945312 C 1588.125 895.714844 1588.765625 895.445312 1589.394531 895.140625 C 1590.019531 894.835938 1590.628906 894.496094 1591.21875 894.121094 C 1591.808594 893.75 1592.375 893.34375 1592.917969 892.90625 C 1593.460938 892.46875 1593.980469 892.003906 1594.46875 891.507812 C 1594.960938 891.011719 1595.425781 890.492188 1595.855469 889.945312 C 1596.289062 889.398438 1596.691406 888.828125 1597.058594 888.238281 C 1597.425781 887.644531 1597.761719 887.035156 1598.0625 886.402344 C 1598.363281 885.773438 1598.625 885.128906 1598.851562 884.46875 C 1599.082031 883.8125 1599.269531 883.140625 1599.421875 882.460938 C 1599.574219 881.777344 1599.6875 881.09375 1599.761719 880.398438 C 1599.839844 879.703125 1599.875 879.007812 1599.871094 878.3125 C 1599.867188 877.613281 1599.824219 876.917969 1599.742188 876.226562 C 1599.664062 875.535156 1599.542969 874.847656 1599.382812 874.167969 C 1599.226562 873.488281 1599.027344 872.820312 1598.796875 872.164062 C 1598.5625 871.507812 1598.292969 870.863281 1597.984375 870.238281 C 1596.820312 867.800781 1595.273438 865.632812 1593.355469 863.734375 C 1591.433594 861.835938 1589.25 860.316406 1586.800781 859.179688 C 1581.0625 856.5 1574.6875 857.488281 1568.664062 858.191406 C 1567.699219 858.273438 1566.800781 858.554688 1565.957031 859.035156 C 1565.117188 859.511719 1564.414062 860.144531 1563.851562 860.929688 C 1556.296875 864.117188 1555.023438 876.453125 1557.476562 882.410156 C 1558.753906 885.335938 1560.550781 887.894531 1562.863281 890.09375 C 1558.53125 898.125 1558.402344 907.71875 1558.339844 916.480469 C 1558.351562 922.484375 1559.351562 928.316406 1561.335938 933.980469 C 1541.324219 919.222656 1523.882812 901.882812 1509.003906 881.964844 C 1503.902344 874.859375 1499.1875 867.625 1494.597656 860.292969 C 1515.21875 846.78125 1533.957031 819.085938 1539.917969 798.144531 C 1546.707031 774.273438 1552.027344 732.363281 1535.296875 710.820312 C 1534.460938 709.757812 1533.398438 709.035156 1532.109375 708.652344 C 1531.988281 708.214844 1531.816406 707.800781 1531.59375 707.40625 C 1531.371094 707.011719 1531.101562 706.648438 1530.792969 706.320312 C 1530.480469 705.992188 1530.132812 705.707031 1529.75 705.460938 C 1529.371094 705.21875 1528.964844 705.023438 1528.535156 704.878906 C 1528.105469 704.734375 1527.667969 704.644531 1527.214844 704.605469 C 1526.761719 704.570312 1526.3125 704.585938 1525.867188 704.660156 C 1525.421875 704.734375 1524.988281 704.859375 1524.574219 705.039062 C 1524.15625 705.21875 1523.769531 705.445312 1523.40625 705.71875 C 1488.351562 730.261719 1469.960938 774.5625 1471.011719 816.503906 C 1459.070312 791.191406 1448.902344 765.183594 1440.511719 738.484375 C 1438.566406 728.246094 1435.527344 718.34375 1431.394531 708.777344 C 1425.882812 689.976562 1421.164062 671.234375 1416.863281 652.527344 C 1417.980469 652.558594 1419.042969 652.335938 1420.050781 651.859375 C 1429.613281 647.363281 1441.753906 651.347656 1452.398438 645.898438 C 1455.753906 644.21875 1458.933594 642.25 1461.9375 639.996094 C 1464.9375 637.742188 1467.714844 635.238281 1470.261719 632.484375 C 1472.8125 629.730469 1475.097656 626.773438 1477.113281 623.605469 C 1479.128906 620.441406 1480.84375 617.121094 1482.261719 613.644531 C 1492.269531 588.847656 1496.253906 554.171875 1483.792969 530.300781 C 1479.457031 521.917969 1447.078125 543.589844 1441.53125 548.148438 C 1436.335938 552.335938 1431.59375 556.984375 1427.304688 562.09375 C 1423.015625 567.203125 1419.257812 572.679688 1416.035156 578.523438 C 1414.378906 581.871094 1412.976562 585.324219 1411.828125 588.878906 C 1417.628906 562.492188 1430.21875 536.101562 1443.699219 513.347656 C 1471.425781 523.226562 1464.828125 468.726562 1436.972656 484.40625 C 1426.011719 490.558594 1428.113281 498.875 1434.328125 504.261719 C 1420.992188 525.492188 1410.507812 548.046875 1402.871094 571.925781 C 1402.585938 568.929688 1402.171875 565.964844 1401.882812 562.96875 C 1400.050781 540.25 1399.828125 517.515625 1401.214844 494.765625 C 1432.351562 466.082031 1444.304688 409.542969 1407.589844 380.761719 C 1407.183594 380.453125 1406.75 380.1875 1406.289062 379.96875 C 1405.828125 379.75 1405.347656 379.582031 1404.851562 379.464844 C 1404.351562 379.351562 1403.847656 379.289062 1403.339844 379.277344 C 1402.828125 379.269531 1402.320312 379.316406 1401.820312 379.414062 C 1401.320312 379.515625 1400.835938 379.667969 1400.367188 379.871094 C 1399.898438 380.074219 1399.457031 380.324219 1399.042969 380.621094 C 1398.625 380.917969 1398.246094 381.257812 1397.90625 381.636719 C 1397.5625 382.011719 1397.261719 382.425781 1397.007812 382.867188 C 1358.445312 409.03125 1363.894531 464.742188 1385.597656 498.175781 C 1386.28125 499.203125 1387.195312 499.945312 1388.339844 500.40625 C 1387.09375 525.011719 1387.679688 549.574219 1390.089844 574.09375 C 1390.921875 581.402344 1391.855469 588.613281 1392.894531 595.734375 C 1388.402344 589.359375 1383.652344 582.984375 1378.90625 576.609375 C 1367.910156 562.011719 1356.085938 545.980469 1341.328125 534.09375 C 1341.574219 533.621094 1341.734375 533.125 1341.808594 532.597656 C 1346.683594 524.628906 1349.648438 517.296875 1341.296875 509.363281 C 1330.875 499.515625 1310.605469 499.800781 1300.660156 510 C 1279.371094 531.480469 1308.4375 545.058594 1329.917969 540.308594 C 1353.40625 556.816406 1372.085938 586.203125 1386.9375 609.5 C 1391.046875 615.875 1394.617188 625.660156 1399.683594 633.722656 C 1402.328125 646.949219 1405.230469 660.113281 1408.511719 673.304688 C 1404.207031 668.261719 1399.609375 663.503906 1394.710938 659.027344 C 1369.664062 636.113281 1331.542969 612.941406 1297.1875 605.230469 C 1296.726562 605.09375 1296.257812 605.007812 1295.777344 604.976562 C 1295.296875 604.945312 1294.820312 604.96875 1294.34375 605.042969 C 1293.867188 605.121094 1293.410156 605.25 1292.964844 605.429688 C 1292.515625 605.613281 1292.097656 605.839844 1291.703125 606.117188 C 1291.308594 606.390625 1290.953125 606.707031 1290.628906 607.066406 C 1290.304688 607.421875 1290.027344 607.8125 1289.792969 608.230469 C 1289.558594 608.652344 1289.375 609.09375 1289.242188 609.554688 C 1289.105469 610.015625 1289.023438 610.488281 1288.996094 610.96875 C 1288.996094 630.789062 1281.921875 648.351562 1286.382812 668.335938 C 1291.226562 689.910156 1298.496094 707.183594 1315.925781 722.707031 C 1344.386719 747.917969 1393.726562 767.996094 1433.628906 759.742188 C 1440.851562 780.988281 1449.351562 801.714844 1459.125 821.921875 C 1442.679688 813.890625 1425.246094 810.542969 1406.632812 802.988281 C 1406.441406 802.988281 1406.34375 802.832031 1406.15625 802.765625 C 1405.871094 802.160156 1405.5 801.609375 1405.050781 801.117188 C 1404.597656 800.621094 1404.085938 800.207031 1403.507812 799.867188 C 1402.929688 799.527344 1402.316406 799.285156 1401.664062 799.132812 C 1401.011719 798.980469 1400.351562 798.925781 1399.683594 798.972656 C 1389.328125 791.929688 1379.667969 781.445312 1363.765625 788.585938 C 1348.722656 795.339844 1349.773438 813.347656 1363.222656 820.804688 C 1377.757812 828.804688 1389.519531 823.070312 1399.621094 814.429688 C 1425.5625 818.511719 1450.902344 826.703125 1470.40625 843.5625 C 1473.433594 849.140625 1476.429688 854.683594 1479.808594 860.421875 C 1480.191406 861.296875 1480.722656 862.074219 1481.402344 862.746094 C 1487.777344 872.820312 1494.148438 882.730469 1501.195312 892.195312 C 1504.828125 897.105469 1508.746094 901.757812 1512.730469 906.125 C 1489.242188 893.949219 1466.710938 881.488281 1439.96875 873.871094 C 1424.394531 869.304688 1408.511719 866.390625 1392.328125 865.128906 C 1376.144531 863.867188 1360.007812 864.285156 1343.910156 866.382812 C 1343.050781 866.453125 1342.261719 866.726562 1341.539062 867.195312 C 1340.816406 867.660156 1340.246094 868.273438 1339.832031 869.027344 C 1339.4375 869.257812 1339.085938 869.542969 1338.777344 869.878906 C 1338.46875 870.214844 1338.214844 870.585938 1338.015625 871 C 1337.816406 871.410156 1337.683594 871.839844 1337.609375 872.292969 C 1337.539062 872.742188 1337.535156 873.195312 1337.601562 873.648438 C 1343.972656 955.777344 1475.1875 956.511719 1535.199219 928.433594 C 1566.082031 955.589844 1602.449219 976.242188 1637.1875 1001.132812 C 1641.011719 1003.808594 1648.949219 1002.695312 1648.246094 996.925781 C 1648.261719 996.628906 1648.261719 996.328125 1648.246094 996.03125 C 1648.125 995.40625 1647.921875 994.808594 1647.636719 994.238281 C 1647.351562 993.664062 1646.996094 993.144531 1646.570312 992.667969 C 1646.144531 992.195312 1645.660156 991.785156 1645.125 991.441406 C 1644.585938 991.097656 1644.011719 990.832031 1643.402344 990.644531 Z M 1508.207031 814.527344 C 1511.902344 802.574219 1513.941406 790.113281 1516.621094 777.9375 C 1520.09375 762.324219 1526.179688 746.707031 1530.164062 730.960938 C 1535.488281 751.007812 1532.203125 779.753906 1527.457031 794.925781 C 1524.394531 803.808594 1520.355469 812.222656 1515.34375 820.167969 C 1510.332031 828.113281 1504.480469 835.378906 1497.785156 841.96875 C 1500.589844 832.660156 1505.464844 823.417969 1508.207031 814.527344 Z M 1389.613281 478.222656 C 1379.03125 453.621094 1376.515625 421.078125 1394.9375 400.554688 C 1393.535156 426.65625 1391.269531 452.566406 1389.613281 478.222656 Z M 1467.984375 613.707031 C 1467.089844 615.4375 1466.09375 617.105469 1464.992188 618.710938 C 1463.894531 620.316406 1462.703125 621.851562 1461.414062 623.3125 C 1460.128906 624.773438 1458.757812 626.152344 1457.304688 627.445312 C 1455.851562 628.738281 1454.320312 629.941406 1452.722656 631.046875 C 1451.121094 632.152344 1449.457031 633.160156 1447.734375 634.0625 C 1446.007812 634.96875 1444.238281 635.761719 1442.414062 636.449219 C 1440.59375 637.136719 1438.738281 637.710938 1436.847656 638.171875 C 1434.957031 638.632812 1433.042969 638.976562 1431.109375 639.203125 C 1459.09375 618.488281 1474.675781 576.578125 1476.175781 546.621094 C 1481.753906 567.652344 1477.355469 596.210938 1467.984375 613.707031 Z M 1418.296875 624.671875 C 1419.828125 614.121094 1420.304688 603 1423.875 592.640625 C 1425.679688 587.894531 1427.894531 583.347656 1430.519531 579 C 1433.144531 574.652344 1436.136719 570.574219 1439.492188 566.765625 C 1442.851562 562.957031 1446.519531 559.476562 1450.503906 556.328125 C 1454.488281 553.179688 1458.722656 550.410156 1463.203125 548.023438 C 1461.101562 576.003906 1445.035156 619.15625 1416.671875 634.074219 C 1417.117188 630.855469 1417.945312 627.285156 1418.296875 624.671875 Z M 1374.507812 741.828125 C 1354.808594 735.453125 1331.195312 723.058594 1318.160156 707.601562 C 1314.878906 703.605469 1311.953125 699.367188 1309.378906 694.886719 C 1306.804688 690.402344 1304.617188 685.738281 1302.820312 680.894531 C 1301.023438 676.046875 1299.636719 671.085938 1298.664062 666.011719 C 1297.695312 660.933594 1297.148438 655.8125 1297.027344 650.644531 C 1297.140625 644.394531 1297.839844 638.214844 1299.132812 632.097656 C 1311.65625 659.601562 1323.894531 682.484375 1348.882812 705.402344 C 1359.90625 715.710938 1371.914062 724.703125 1384.90625 732.386719 C 1397.898438 740.066406 1411.570312 746.253906 1425.914062 750.945312 C 1420.464844 750.5625 1373.519531 741.480469 1374.507812 741.828125 Z M 1387.253906 808.757812 C 1358.570312 826.191406 1381.421875 797.921875 1388.496094 807.707031 C 1388.210938 807.867188 1387.796875 808.375 1387.382812 808.632812 Z M 1352.386719 882.828125 C 1365.871094 887.382812 1378.425781 897.933594 1391.367188 903.605469 C 1406.058594 909.980469 1421.101562 916.960938 1436.398438 922.089844 C 1450.042969 926.558594 1464.003906 929.542969 1478.277344 931.046875 C 1426.425781 937.867188 1363.765625 928.082031 1352.386719 882.828125 Z M 1481.210938 917.882812 C 1457.976562 916.292969 1437.800781 909.851562 1416.734375 901.089844 C 1400.226562 894.238281 1384.289062 883.273438 1367.78125 875.847656 C 1421.960938 874.15625 1465.816406 897.039062 1512.699219 919.765625 C 1503.808594 918.839844 1483.441406 918.171875 1481.210938 918.074219 Z M 1568.886719 871.640625 C 1570.351562 871.378906 1571.53125 870.660156 1572.425781 869.472656 C 1576.441406 868.929688 1580.550781 868.644531 1583.707031 871.574219 C 1587.46875 875.019531 1588.902344 882.539062 1582.941406 884.707031 C 1582.386719 884.859375 1581.820312 884.96875 1581.246094 885.035156 C 1580.671875 885.097656 1580.097656 885.113281 1579.519531 885.085938 C 1578.941406 885.058594 1578.371094 884.984375 1577.804688 884.863281 C 1577.242188 884.742188 1576.6875 884.578125 1576.148438 884.371094 C 1575.613281 884.164062 1575.09375 883.914062 1574.59375 883.621094 C 1574.09375 883.332031 1573.621094 883.003906 1573.175781 882.636719 C 1572.730469 882.269531 1572.316406 881.867188 1571.933594 881.4375 C 1571.550781 881.003906 1571.203125 880.542969 1570.894531 880.054688 C 1570.515625 879.574219 1570.207031 879.054688 1569.960938 878.496094 C 1569.714844 877.9375 1569.542969 877.359375 1569.445312 876.757812 C 1569.347656 876.152344 1569.328125 875.550781 1569.382812 874.941406 C 1569.441406 874.335938 1569.574219 873.742188 1569.78125 873.167969 C 1570.417969 870.714844 1571.53125 871.257812 1568.886719 871.832031 Z M 1568.886719 871.640625 " fill-opacity="1" fill-rule="nonzero"/></g><g fill="#1d863a" fill-opacity="1"><g transform="translate(1096.684382, 1782.420151)"><g><path d="M 105.640625 12.8125 C 160.0625 12.8125 218.5 -11.203125 218.5 -54.421875 C 218.5 -78.4375 209.6875 -94.4375 200.078125 -112.84375 C 187.28125 -138.453125 171.28125 -168.078125 171.28125 -232.90625 L 171.28125 -335.34375 C 171.28125 -372.15625 172.875 -401.765625 193.6875 -401.765625 C 223.296875 -401.765625 236.09375 -261.71875 236.09375 -224.09375 C 236.09375 -185.6875 252.109375 -140.0625 318.53125 -140.0625 C 391.375 -140.0625 396.96875 -187.28125 396.96875 -220.09375 C 396.96875 -270.515625 411.375 -400.96875 439.390625 -400.96875 C 454.59375 -400.96875 457 -368.15625 457 -329.734375 L 457 -226.5 C 457 -170.46875 440.984375 -137.65625 427.390625 -108.84375 C 416.984375 -87.234375 408.171875 -68.03125 408.171875 -43.21875 C 408.171875 -4 447.390625 12.8125 492.21875 12.8125 C 546.640625 12.8125 605.0625 -11.203125 605.0625 -54.421875 C 605.0625 -78.4375 596.25 -94.4375 586.65625 -112.84375 C 573.84375 -138.453125 557.84375 -168.078125 557.84375 -230.5 L 557.84375 -316.140625 C 557.84375 -377.765625 573.84375 -408.96875 587.453125 -435.390625 C 597.0625 -453.796875 605.0625 -470.609375 605.0625 -493.015625 C 605.0625 -537.03125 557.84375 -560.234375 509.8125 -560.234375 C 470.609375 -560.234375 432.984375 -545.03125 409.78125 -503.421875 C 348.953125 -393.765625 328.140625 -264.90625 327.34375 -260.90625 C 325.734375 -252.90625 321.734375 -248.90625 317.734375 -248.90625 C 313.734375 -248.90625 310.53125 -252.90625 308.9375 -260.90625 C 290.53125 -341.75 272.921875 -432.984375 216.09375 -514.625 C 192.078125 -549.03125 157.671875 -560.234375 123.25 -560.234375 C 72.828125 -560.234375 21.609375 -534.625 21.609375 -481.8125 C 21.609375 -457.796875 30.40625 -443.390625 40.015625 -426.578125 C 53.625 -403.375 70.4375 -375.359375 70.4375 -311.328125 L 70.4375 -225.703125 C 70.4375 -170.46875 54.421875 -137.65625 40.8125 -108.84375 C 30.40625 -87.234375 21.609375 -68.03125 21.609375 -43.21875 C 21.609375 -4 60.828125 12.8125 105.640625 12.8125 Z M 105.640625 12.8125 "/></g></g></g><g fill="#ffffff" fill-opacity="1"><g transform="translate(1723.358645, 1782.420151)"><g><path d="M 164.078125 12.8125 C 217.296875 12.8125 241.296875 -15.203125 258.515625 -35.21875 C 268.109375 -46.015625 275.3125 -54.421875 284.125 -54.421875 C 290.53125 -54.421875 296.921875 -49.625 296.921875 -32.8125 C 296.921875 -9.609375 296.921875 12.8125 334.546875 12.8125 C 374.5625 12.8125 424.984375 -12.8125 424.984375 -52.828125 C 424.984375 -70.03125 419.375 -76.828125 412.171875 -85.234375 C 400.171875 -99.25 384.96875 -117.25 384.96875 -191.28125 C 384.96875 -275.3125 392.96875 -298.921875 398.578125 -315.328125 C 401.765625 -324.546875 404.171875 -331.34375 404.171875 -344.953125 C 404.171875 -366.5625 385.765625 -374.5625 373.765625 -374.5625 C 349.34375 -374.5625 340.546875 -363.359375 332.546875 -353.75 C 326.140625 -345.75 320.140625 -338.546875 307.328125 -338.546875 C 296.921875 -338.546875 288.921875 -344.546875 279.71875 -351.75 C 266.109375 -361.75 249.3125 -374.5625 216.890625 -374.5625 C 104.84375 -374.5625 19.203125 -263.3125 19.203125 -152.859375 C 19.203125 -56.03125 80.828125 12.8125 164.078125 12.8125 Z M 199.28125 -78.4375 C 156.875 -78.4375 140.0625 -124.046875 140.0625 -172.875 C 140.0625 -240.109375 174.46875 -306.53125 232.90625 -306.53125 C 271.3125 -306.53125 296.921875 -278.515625 296.921875 -224.09375 C 296.921875 -144.859375 251.3125 -78.4375 199.28125 -78.4375 Z M 199.28125 -78.4375 "/></g></g></g><g fill="#ffffff" fill-opacity="1"><g transform="translate(2164.346463, 1782.420151)"><g><path d="M 407.375 -92.84375 C 384.171875 -132.859375 380.96875 -144.859375 380.96875 -179.28125 C 380.96875 -190.484375 383.359375 -236.90625 383.359375 -247.3125 C 383.359375 -331.34375 351.34375 -374.5625 292.921875 -374.5625 C 259.3125 -374.5625 234.5 -363.359375 198.484375 -328.9375 C 178.484375 -309.734375 170.46875 -304.9375 161.671875 -304.9375 C 155.265625 -304.9375 148.859375 -308.9375 148.859375 -332.140625 C 148.859375 -358.546875 144.859375 -374.5625 112.046875 -374.5625 C 64.03125 -374.5625 20.8125 -343.34375 20.8125 -308.9375 C 20.8125 -296.125 25.609375 -286.515625 37.609375 -272.109375 C 56.03125 -250.5 62.421875 -229.703125 62.421875 -189.6875 C 62.421875 -146.46875 54.421875 -115.25 36.015625 -87.234375 C 26.40625 -72.828125 20.8125 -56.03125 20.8125 -41.625 C 20.8125 -8 48.015625 12.8125 91.234375 12.8125 C 144.0625 12.8125 185.6875 -16.8125 185.6875 -54.421875 C 185.6875 -66.421875 182.484375 -76.828125 172.875 -92.046875 C 156.0625 -122.453125 148.859375 -152.0625 148.859375 -178.484375 C 148.859375 -240.90625 178.484375 -278.515625 239.296875 -278.515625 C 276.921875 -278.515625 296.125 -250.5 296.125 -184.078125 C 296.125 -148.859375 286.515625 -113.65625 269.71875 -87.234375 C 260.109375 -72.828125 254.515625 -56.03125 254.515625 -41.625 C 254.515625 -8 281.71875 12.8125 324.9375 12.8125 C 377.765625 12.8125 419.375 -16.8125 419.375 -54.421875 C 419.375 -67.234375 416.171875 -77.640625 407.375 -92.84375 Z M 407.375 -92.84375 "/></g></g></g><g fill="#000000" fill-opacity="1"><g transform="translate(2598.944861, 1782.420151)"><g/></g></g><g fill="#1d863a" fill-opacity="1"><g transform="translate(278.3419, 2326.214248)"><g><path d="M 83.234375 12.8125 C 137.65625 12.8125 196.078125 -11.203125 196.078125 -54.421875 C 196.078125 -67.234375 192.078125 -76.828125 188.078125 -87.234375 C 183.28125 -100.046875 177.671875 -114.453125 177.671875 -132.0625 C 177.671875 -153.671875 190.484375 -168.078125 222.5 -168.078125 L 261.71875 -168.078125 C 282.515625 -168.078125 304.9375 -157.671875 304.9375 -138.453125 C 304.9375 -124.046875 294.53125 -97.640625 285.71875 -84.03125 C 279.3125 -72.03125 272.921875 -61.625 272.921875 -43.21875 C 272.921875 -4 312.140625 12.8125 356.953125 12.8125 C 411.375 12.8125 469.796875 -11.203125 469.796875 -54.421875 C 469.796875 -80.828125 460.203125 -92.046875 447.390625 -106.453125 C 433.78125 -122.453125 414.984375 -140.0625 390.5625 -219.296875 L 366.5625 -297.734375 C 333.75 -404.96875 340.953125 -446.59375 343.34375 -476.203125 C 344.140625 -483.40625 344.953125 -489.8125 344.953125 -497.015625 C 344.953125 -541.03125 303.328125 -560.234375 257.703125 -560.234375 C 205.6875 -560.234375 148.0625 -533.03125 148.0625 -485.8125 C 148.0625 -479.40625 148.859375 -473 148.859375 -465.796875 C 150.46875 -436.1875 158.0625 -397.765625 122.453125 -288.921875 L 107.25 -242.5 C 74.828125 -143.265625 49.625 -120.859375 30.40625 -102.4375 C 12.8125 -85.640625 -0.796875 -72.828125 -0.796875 -43.21875 C -0.796875 -4 38.421875 12.8125 83.234375 12.8125 Z M 239.296875 -220.890625 C 220.09375 -220.890625 208.09375 -231.296875 208.09375 -248.90625 C 208.09375 -270.515625 214.484375 -300.921875 222.5 -335.34375 C 227.296875 -354.546875 231.296875 -375.359375 236.09375 -396.96875 C 238.5 -406.578125 242.5 -411.375 247.3125 -411.375 C 251.3125 -411.375 256.90625 -406.578125 258.515625 -396.96875 C 260.90625 -380.96875 264.109375 -364.15625 268.109375 -348.953125 C 275.3125 -309.734375 282.515625 -273.71875 282.515625 -250.5 C 282.515625 -232.09375 271.3125 -220.890625 251.3125 -220.890625 Z M 239.296875 -220.890625 "/></g></g></g><g fill="#ffffff" fill-opacity="1"><g transform="translate(749.756776, 2326.214248)"><g><path d="M 109.640625 152.0625 C 158.46875 152.0625 191.28125 123.25 211.296875 87.234375 C 232.90625 48.828125 244.109375 13.609375 259.3125 -31.21875 C 284.921875 -110.453125 314.53125 -200.890625 362.5625 -259.3125 C 380.15625 -280.125 392.171875 -295.328125 392.171875 -320.9375 C 392.171875 -356.953125 359.359375 -374.5625 321.734375 -374.5625 C 276.921875 -374.5625 237.703125 -348.953125 237.703125 -316.9375 C 237.703125 -301.734375 240.90625 -292.921875 244.109375 -284.921875 C 247.3125 -276.921875 250.5 -269.71875 250.5 -256.109375 C 250.5 -236.09375 242.5 -201.6875 216.890625 -130.453125 C 213.6875 -122.453125 210.484375 -116.84375 206.484375 -116.84375 C 202.484375 -116.84375 197.6875 -121.65625 194.484375 -129.65625 C 167.265625 -192.078125 160.0625 -228.890625 160.0625 -253.703125 C 160.0625 -270.515625 163.265625 -282.515625 166.46875 -292.921875 C 169.671875 -301.734375 172.078125 -310.53125 172.078125 -320.9375 C 172.078125 -356.953125 139.265625 -374.5625 101.640625 -374.5625 C 56.828125 -374.5625 7.203125 -348.15625 7.203125 -308.9375 C 7.203125 -286.515625 16.8125 -277.71875 32.8125 -264.109375 C 88.84375 -215.296875 158.46875 -28.015625 158.46875 21.609375 C 158.46875 32.40625 154.46875 36.8125 144.859375 37.21875 C 120.859375 37.21875 112.046875 17.609375 72.03125 17.609375 C 40.015625 17.609375 20.015625 40.015625 20.015625 74.4375 C 20.015625 123.25 57.625 152.0625 109.640625 152.0625 Z M 109.640625 152.0625 "/></g></g></g><g fill="#ffffff" fill-opacity="1"><g transform="translate(1149.126936, 2326.214248)"><g><path d="M 388.171875 -170.46875 C 388.171875 -215.296875 396.171875 -246.5 414.578125 -274.515625 C 424.1875 -288.921875 429.78125 -305.734375 429.78125 -320.140625 C 429.78125 -353.75 402.578125 -374.5625 359.359375 -374.5625 C 306.53125 -374.5625 264.90625 -344.953125 264.90625 -307.328125 C 264.90625 -295.328125 268.109375 -284.921875 276.921875 -269.71875 C 294.53125 -239.296875 301.734375 -209.6875 301.734375 -181.671875 C 301.734375 -120.859375 264.109375 -83.234375 203.28125 -83.234375 C 157.671875 -83.234375 138.453125 -111.25 138.453125 -176.078125 C 138.453125 -212.890625 148.0625 -248.109375 164.875 -274.515625 C 174.46875 -288.921875 180.078125 -305.734375 180.078125 -320.140625 C 180.078125 -353.75 152.859375 -374.5625 109.640625 -374.5625 C 56.828125 -374.5625 15.203125 -344.953125 15.203125 -307.328125 C 15.203125 -294.53125 18.40625 -284.125 27.21875 -268.921875 C 50.421875 -228.890625 53.625 -216.890625 53.625 -180.875 C 53.625 -169.671875 51.21875 -124.859375 51.21875 -114.453125 C 51.21875 -30.40625 83.234375 12.8125 141.65625 12.8125 C 183.28125 12.8125 208.09375 1.59375 244.109375 -32.8125 C 264.109375 -52.015625 272.109375 -56.828125 282.515625 -56.828125 C 295.328125 -56.828125 301.734375 -48.015625 301.734375 -29.609375 C 301.734375 -3.203125 305.734375 12.8125 338.546875 12.8125 C 386.5625 12.8125 429.78125 -18.40625 429.78125 -52.828125 C 429.78125 -65.625 424.984375 -75.234375 412.984375 -89.640625 C 394.5625 -111.25 388.171875 -132.0625 388.171875 -170.46875 Z M 388.171875 -170.46875 "/></g></g></g><g fill="#ffffff" fill-opacity="1"><g transform="translate(1599.718853, 2326.214248)"><g><path d="M 268.921875 -374.5625 C 201.6875 -374.5625 192.875 -304.9375 168.078125 -304.9375 C 155.265625 -304.9375 148.859375 -313.734375 148.859375 -332.140625 C 148.859375 -358.546875 144.859375 -374.5625 112.046875 -374.5625 C 64.03125 -374.5625 20.8125 -343.34375 20.8125 -308.9375 C 20.8125 -296.125 25.609375 -286.515625 37.609375 -272.109375 C 56.03125 -250.5 62.421875 -229.703125 62.421875 -189.6875 C 62.421875 -146.46875 54.421875 -115.25 36.015625 -87.234375 C 26.40625 -72.828125 20.8125 -56.03125 20.8125 -41.625 C 20.8125 -8 48.015625 12.8125 91.234375 12.8125 C 144.0625 12.8125 185.6875 -16.8125 185.6875 -54.421875 C 185.6875 -66.421875 182.484375 -76.828125 172.875 -92.046875 C 156.0625 -122.453125 148.859375 -152.0625 148.859375 -178.484375 C 148.859375 -240.90625 186.484375 -278.515625 223.296875 -278.515625 C 240.90625 -278.515625 258.515625 -268.921875 258.515625 -251.3125 C 258.515625 -240.90625 254.515625 -234.5 254.109375 -220.890625 C 254.515625 -193.6875 277.3125 -180.078125 304.125 -180.078125 C 338.546875 -180.078125 367.359375 -209.6875 367.359375 -258.515625 C 367.359375 -318.53125 336.9375 -374.5625 268.921875 -374.5625 Z M 268.921875 -374.5625 "/></g></g></g><g fill="#ffffff" fill-opacity="1"><g transform="translate(1979.880723, 2326.214248)"><g><path d="M 188.875 12.8125 C 233.703125 12.8125 236.90625 -1.59375 252.109375 -55.21875 C 258.515625 -79.234375 267.3125 -108.84375 282.515625 -149.671875 C 303.328125 -207.28125 328.140625 -236.90625 346.546875 -259.3125 C 364.15625 -280.125 376.15625 -295.328125 376.15625 -320.9375 C 376.15625 -356.953125 343.34375 -374.5625 305.734375 -374.5625 C 260.90625 -374.5625 221.6875 -348.953125 221.6875 -316.9375 C 221.6875 -301.734375 224.890625 -292.921875 228.09375 -284.921875 C 232.09375 -274.515625 233.703125 -264.109375 233.703125 -252.90625 C 233.703125 -220.890625 220.09375 -181.671875 200.890625 -130.453125 C 197.6875 -122.453125 194.484375 -116.84375 190.484375 -116.84375 C 186.484375 -116.84375 181.671875 -121.65625 178.484375 -129.65625 C 164.875 -160.0625 158.46875 -197.6875 158.46875 -232.90625 C 158.46875 -254.515625 160.875 -275.3125 166.46875 -292.921875 C 169.671875 -301.734375 172.078125 -310.53125 172.078125 -320.9375 C 172.078125 -356.953125 139.265625 -374.5625 101.640625 -374.5625 C 56.828125 -374.5625 7.203125 -348.15625 7.203125 -308.9375 C 7.203125 -286.515625 16.8125 -277.71875 32.8125 -264.109375 C 92.84375 -212.890625 112.046875 -132.0625 123.25 -59.21875 C 129.65625 -20.8125 135.265625 12.8125 188.875 12.8125 Z M 188.875 12.8125 "/></g></g></g><g fill="#ffffff" fill-opacity="1"><g transform="translate(2363.244057, 2326.214248)"><g><path d="M 192.875 12.8125 C 289.71875 12.8125 357.75 -59.21875 357.75 -109.640625 C 357.75 -124.859375 345.75 -133.65625 334.546875 -133.65625 C 298.53125 -133.65625 292.125 -68.828125 205.6875 -68.828125 C 175.28125 -68.828125 151.265625 -83.234375 152.859375 -112.046875 C 154.46875 -136.859375 186.484375 -143.265625 224.890625 -151.265625 C 284.125 -164.078125 359.359375 -179.28125 358.546875 -266.515625 C 357.75 -324.140625 308.125 -374.5625 228.890625 -374.5625 C 104.046875 -374.5625 18.40625 -260.109375 18.40625 -150.46875 C 18.40625 -45.625 94.4375 12.8125 192.875 12.8125 Z M 175.28125 -192.078125 C 156.0625 -192.078125 147.265625 -200.890625 147.265625 -220.890625 C 147.265625 -264.109375 184.875 -308.125 228.09375 -308.125 C 252.109375 -308.125 268.921875 -299.328125 268.921875 -276.125 C 268.921875 -234.5 212.890625 -192.078125 175.28125 -192.078125 Z M 175.28125 -192.078125 "/></g></g></g><g fill="#ffffff" fill-opacity="1"><g transform="translate(2745.00674, 2326.214248)"><g><path d="M 408.171875 -89.640625 C 396.96875 -103.25 384.171875 -115.25 384.171875 -217.6875 L 384.171875 -333.75 C 384.171875 -368.15625 384.171875 -405.78125 407.375 -459.390625 C 414.578125 -475.40625 420.1875 -490.609375 420.1875 -505.8125 C 420.1875 -543.4375 386.5625 -560.234375 349.75 -560.234375 C 304.9375 -560.234375 255.3125 -535.4375 255.3125 -493.015625 C 255.3125 -474.609375 264.109375 -459.390625 270.515625 -448.1875 C 287.328125 -417.78125 293.328125 -391.765625 295.734375 -368.953125 C 295.734375 -369.359375 295.328125 -369.359375 295.328125 -369.765625 C 296.125 -360.15625 294.53125 -354.546875 289.71875 -354.546875 C 278.515625 -354.546875 267.3125 -374.5625 215.296875 -374.5625 C 109.640625 -374.5625 19.203125 -272.921875 19.203125 -152.859375 C 19.203125 -55.21875 80.828125 12.8125 164.078125 12.8125 C 246.5 12.8125 259.3125 -54.421875 284.125 -54.421875 C 290.53125 -54.421875 296.921875 -49.625 296.921875 -32.8125 C 296.921875 -9.609375 296.921875 12.8125 334.546875 12.8125 C 373.765625 12.8125 424.984375 -12 424.984375 -52.828125 C 424.984375 -68.828125 416.984375 -79.234375 408.171875 -89.640625 Z M 199.28125 -78.4375 C 156.875 -78.4375 140.0625 -124.046875 140.0625 -172.875 C 140.0625 -245.703125 174.46875 -306.53125 232.90625 -306.53125 C 271.3125 -306.53125 296.921875 -284.125 296.921875 -224.09375 C 296.921875 -144.859375 251.3125 -78.4375 199.28125 -78.4375 Z M 199.28125 -78.4375 "/></g></g></g><g fill="#ffffff" fill-opacity="1"><g transform="translate(3184.393946, 2326.214248)"><g><path d="M 164.078125 12.8125 C 217.296875 12.8125 241.296875 -15.203125 258.515625 -35.21875 C 268.109375 -46.015625 275.3125 -54.421875 284.125 -54.421875 C 290.53125 -54.421875 296.921875 -49.625 296.921875 -32.8125 C 296.921875 -9.609375 296.921875 12.8125 334.546875 12.8125 C 374.5625 12.8125 424.984375 -12.8125 424.984375 -52.828125 C 424.984375 -70.03125 419.375 -76.828125 412.171875 -85.234375 C 400.171875 -99.25 384.96875 -117.25 384.96875 -191.28125 C 384.96875 -275.3125 392.96875 -298.921875 398.578125 -315.328125 C 401.765625 -324.546875 404.171875 -331.34375 404.171875 -344.953125 C 404.171875 -366.5625 385.765625 -374.5625 373.765625 -374.5625 C 349.34375 -374.5625 340.546875 -363.359375 332.546875 -353.75 C 326.140625 -345.75 320.140625 -338.546875 307.328125 -338.546875 C 296.921875 -338.546875 288.921875 -344.546875 279.71875 -351.75 C 266.109375 -361.75 249.3125 -374.5625 216.890625 -374.5625 C 104.84375 -374.5625 19.203125 -263.3125 19.203125 -152.859375 C 19.203125 -56.03125 80.828125 12.8125 164.078125 12.8125 Z M 199.28125 -78.4375 C 156.875 -78.4375 140.0625 -124.046875 140.0625 -172.875 C 140.0625 -240.109375 174.46875 -306.53125 232.90625 -306.53125 C 271.3125 -306.53125 296.921875 -278.515625 296.921875 -224.09375 C 296.921875 -144.859375 251.3125 -78.4375 199.28125 -78.4375 Z M 199.28125 -78.4375 "/></g></g></g></svg>